<svg width="17" height="18" viewBox="0 0 17 18" fill="none" xmlns="http://www.w3.org/2000/svg">
<path d="M13.5 1.5C12.837 1.5 12.2011 1.76339 11.7322 2.23223C11.2634 2.70107 11 3.33696 11 4V14C11 14.663 11.2634 15.2989 11.7322 15.7678C12.2011 16.2366 12.837 16.5 13.5 16.5C14.163 16.5 14.7989 16.2366 15.2678 15.7678C15.7366 15.2989 16 14.663 16 14C16 13.337 15.7366 12.7011 15.2678 12.2322C14.7989 11.7634 14.163 11.5 13.5 11.5H3.5C2.83696 11.5 2.20107 11.7634 1.73223 12.2322C1.26339 12.7011 1 13.337 1 14C1 14.663 1.26339 15.2989 1.73223 15.7678C2.20107 16.2366 2.83696 16.5 3.5 16.5C4.16304 16.5 4.79893 16.2366 5.26777 15.7678C5.73661 15.2989 6 14.663 6 14V4C6 3.33696 5.73661 2.70107 5.26777 2.23223C4.79893 1.76339 4.16304 1.5 3.5 1.5C2.83696 1.5 2.20107 1.76339 1.73223 2.23223C1.26339 2.70107 1 3.33696 1 4C1 4.66304 1.26339 5.29893 1.73223 5.76777C2.20107 6.23661 2.83696 6.5 3.5 6.5H13.5C14.163 6.5 14.7989 6.23661 15.2678 5.76777C15.7366 5.29893 16 4.66304 16 4C16 3.33696 15.7366 2.70107 15.2678 2.23223C14.7989 1.76339 14.163 1.5 13.5 1.5Z" stroke="black" stroke-width="1.66667" stroke-linecap="round" stroke-linejoin="round"/>
</svg>
