<svg width="24" height="25" viewBox="0 0 24 25" fill="none" xmlns="http://www.w3.org/2000/svg">
<path d="M13.3248 10.7963L5.44059 18.6805M6.29145 12.9586L2.42965 12.0464C2.00478 11.9461 1.85535 11.4186 2.16313 11.1097L5.23428 8.03853C5.44059 7.83223 5.72049 7.71402 6.01378 7.71179L9.47635 7.68168M13.8377 3.71951C16.4149 5.47701 18.6441 7.70621 20.4016 10.2833M11.1614 17.8296L12.0736 21.6914C12.1739 22.1163 12.7014 22.2657 13.0103 21.958L16.0814 18.8868C16.2878 18.6805 16.406 18.4006 16.4082 18.1073L16.4383 14.6447M21.0629 8.47121L21.9639 4.13547C22.2093 2.95563 21.1655 1.91184 19.9856 2.15717L15.6499 3.05822C14.373 3.32363 13.2021 3.95593 12.281 4.87817L8.72362 8.43441C7.36647 9.79156 6.48326 11.5513 6.20447 13.4504L6.19221 13.5318C6.01601 14.744 6.42193 15.9673 7.28729 16.8338C8.15266 17.6992 9.3771 18.1051 10.5893 17.9278L10.6707 17.9155C12.5698 17.6378 14.3295 16.7535 15.6867 15.3964L19.2429 11.8401C20.1652 10.919 20.7975 9.74807 21.0629 8.47121Z" stroke="black" stroke-width="2" stroke-linecap="round" stroke-linejoin="round"/>
</svg>
